Coordinates
version=1
nRows=22
nColumns=24
inDegrees=yes

Units are S.I. units (second, meters, Newtons, ...)
Angles are in degrees.

endheader
time	pelvis_tilt	pelvis_list	pelvis_rotation	pelvis_tx	pelvis_ty	pelvis_tz	hip_flexion_r	hip_adduction_r	hip_rotation_r	knee_angle_r	ankle_angle_r	subtalar_angle_r	mtp_angle_r	hip_flexion_l	hip_adduction_l	hip_rotation_l	knee_angle_l	ankle_angle_l	subtalar_angle_l	mtp_angle_l	lumbar_extension	lumbar_bending	lumbar_rotation
      6.37000000	      4.53341513	      6.20086577	      4.90737427	      1.11584153	      1.05199325	     -0.18087028	     13.70995441	     -5.53668237	     -4.01482732	     -1.77607253	      6.76811795	    -11.19165187	      0.00000000	    -22.22263608	      8.06249244	      9.38031305	     -1.66436067	      3.55877027	    -23.02794310	      0.00000000	    -20.20798273	     -6.28710247	    -10.53270303
      6.38000000	      4.72658734	      6.15396974	      4.72311392	      1.12940379	      1.05161180	     -0.17892965	     13.15977036	     -5.24234002	     -5.00122786	     -0.88232629	      7.07815467	    -10.78410369	      0.00000000	    -22.76362867	      7.88662140	      8.86284175	     -2.37673037	      3.39875054	    -22.25564030	      0.00000000	    -20.21200218	     -6.32614763	    -10.35857843
      6.39000000	      4.94510122	      6.05427798	      4.50952426	      1.14325315	      1.05121937	     -0.17688193	     12.60190590	     -4.86878339	     -5.93991938	     -0.31402742	      7.21702900	    -10.60612879	      0.00000000	    -23.30399471	      7.66207749	      8.41058849	     -3.14581360	      3.06374999	    -21.67201457	      0.00000000	    -20.20281734	     -6.31346180	    -10.14736364
      6.40000000	      5.13551826	      5.94897050	      4.27522716	      1.15735512	      1.05077729	     -0.17471800	     12.14290043	     -4.48889103	     -7.09289206	     -0.15341108	      7.30874208	    -10.33015020	      0.00000000	    -23.72186313	      7.44100967	      7.68469986	     -4.08672728	      2.91663722	    -20.78829613	      0.00000000	    -20.12793350	     -6.31792694	     -9.92005087
      6.41000000	      5.39720460	      5.79539152	      4.06205436	      1.17175566	      1.05036879	     -0.17253205	     11.58930696	     -4.06917549	     -8.09621107	     -0.24456338	      7.04777399	    -10.51907368	      0.00000000	    -24.20074243	      7.15134388	      7.12428116	     -5.06778222	      2.50855900	    -20.19222552	      0.00000000	    -20.09344859	     -6.24799378	     -9.71277453
      6.42000000	      5.65092983	      5.70736973	      3.86388738	      1.18637420	      1.04999318	     -0.17023334	     11.06143542	     -3.74729354	     -9.15881757	     -0.61290104	      6.58702418	    -10.67845951	      0.00000000	    -24.53856092	      6.89726766	      6.06346930	     -6.28988130	      2.41639608	    -18.73389383	      0.00000000	    -20.03609399	     -6.27594950	     -9.58857700
      6.43000000	      5.84888999	      5.52750168	      3.69415246	      1.20126215	      1.04956500	     -0.16791235	     10.57593495	     -3.36749139	    -10.06187664	     -1.14483969	      5.65655515	    -11.22395838	      0.00000000	    -24.74768021	      6.52845050	      4.95156383	     -7.63106816	      2.24668716	    -17.32050259	      0.00000000	    -19.85766792	     -6.19709182	     -9.45549822
      6.44000000	      6.05296153	      5.26840051	      3.53966290	      1.21635886	      1.04922456	     -0.16553850	     10.05705976	     -2.93507829	    -10.70853388	     -1.76889794	      4.32937960	    -12.11402874	      0.00000000	    -24.87902313	      6.04389975	      3.67664968	     -9.10411093	      1.99577841	    -15.76162510	      0.00000000	    -19.64122170	     -6.03062348	     -9.33154631
      6.45000000	      6.23865770	      4.88934189	      3.38413067	      1.23163017	      1.04899909	     -0.16309482	      9.53483257	     -2.39871904	    -11.02971540	     -2.44034602	      2.74616636	    -13.29911392	      0.00000000	    -24.89570918	      5.40415963	      2.20712876	    -10.71878793	      1.61139468	    -14.07502867	      0.00000000	    -19.34978252	     -5.74046633	     -9.17979205
      6.46000000	      6.42901553	      4.36127462	      3.20509441	      1.24702952	      1.04896631	     -0.16058634	      9.00774442	     -1.71836620	    -11.04876272	     -3.16479285	      1.18443864	    -14.58479061	      0.00000000	    -24.83424066	      4.58788916	      0.60241448	    -12.44696277	      0.97601865	    -12.42864380	      0.00000000	    -19.00585441	     -5.29171709	     -8.97937328
      6.47000000	      6.60853525	      3.69317635	      2.98504238	      1.26250497	      1.04914528	     -0.15803171	      8.51688855	     -0.89821532	    -10.83581651	     -3.96837755	     -0.15353016	    -15.83839092	      0.00000000	    -24.68107564	      3.61446126	     -1.09132309	    -14.28622765	      0.02514050	    -10.91257308	      0.00000000	    -18.59351940	     -4.68874224	     -8.70863885
      6.48000000	      6.77682511	      2.86937016	      2.73782913	      1.27804803	      1.04953231	     -0.15544283	      8.05133386	      0.09168189	    -10.37117595	     -4.84347243	     -0.94656235	    -16.93589612	      0.00000000	    -24.43473763	      2.46221202	     -2.82246342	    -16.24460454	     -1.31005750	     -9.67278619	      0.00000000	    -18.11234343	     -3.91076667	     -8.43654418
      6.49000000	      6.95085936	      1.99744093	      2.37709581	      1.29357009	      1.05014225	     -0.15271783	      7.63293957	      1.14091294	     -9.85890555	     -5.86137114	     -0.87491862	    -17.37987721	      0.00000000	    -24.13449928	      1.27379237	     -4.57292614	    -18.28684359	     -3.11185290	     -8.71417108	      0.00000000	    -17.60894302	     -3.10735123	     -8.05406874
      6.50000000	      7.05848887	      1.11626447	      2.01856846	      1.30903707	      1.05086069	     -0.14997506	      7.26893172	      2.21198408	     -9.29136827	     -6.90502933	     -0.38951972	    -17.69475337	      0.00000000	    -23.66938014	      0.04931900	     -6.15348430	    -20.47528336	     -5.22832308	     -8.09713254	      0.00000000	    -17.01484898	     -2.29348792	     -7.70901962
      6.51000000	      7.11091997	      0.29965020	      1.65577273	      1.32435969	      1.05166000	     -0.14716654	      6.91229938	      3.23837371	     -8.67796701	     -7.90155543	      0.44281107	    -17.87496839	      0.00000000	    -23.04238755	     -1.12594391	     -7.46380218	    -22.80344327	     -7.60971046	     -7.85149874	      0.00000000	    -16.37725660	     -1.56407574	     -7.41420336
      6.52000000	      7.05895976	     -0.38114734	      1.32645908	      1.33944737	      1.05244739	     -0.14433830	      6.58585780	      4.13931568	     -8.08093654	     -8.77936659	      1.50638806	    -17.92349866	      0.00000000	    -22.17066938	     -2.17423650	     -8.37198840	    -25.29135733	    -10.17131528	     -8.04037501	      0.00000000	    -15.66294988	     -0.99492016	     -7.20449125
      6.53000000	      6.94299843	     -0.90841291	      1.10230818	      1.35420968	      1.05324453	     -0.14158150	      6.21392180	      4.88758324	     -7.61926688	     -9.44554684	      2.58911356	    -17.92457205	      0.00000000	    -21.06787361	     -3.07988501	     -8.77374878	    -27.93864502	    -12.86351169	     -8.72421388	      0.00000000	    -14.94601987	     -0.59426924	     -7.13199726
      6.54000000	      6.78228676	     -1.28937010	      1.01753764	      1.36856512	      1.05403354	     -0.13894880	      5.76835670	      5.48582930	     -7.31432219	     -9.85583444	      3.56628998	    -17.95665430	      0.00000000	    -19.72853304	     -3.84446580	     -8.68992565	    -30.75243477	    -15.56251915	     -9.79939693	      0.00000000	    -14.27195718	     -0.34949237	     -7.20472501
      6.55000000	      6.59219210	     -1.54580378	      1.09630447	      1.38245554	      1.05479117	     -0.13650893	      5.24264324	      5.94941678	     -7.19673893	    -10.00599941	      4.39702726	    -18.02212472	      0.00000000	    -18.16299305	     -4.47290812	     -8.16317626	    -33.71377002	    -18.21549352	    -11.23184089	      0.00000000	    -13.67255111	     -0.23170115	     -7.42174720
      6.56000000	      6.39654224	     -1.71905684	      1.33854632	      1.39586056	      1.05550635	     -0.13431669	      4.62872669	      6.31876360	     -7.26365671	     -9.91569405	      5.06743163	    -18.11718790	      0.00000000	    -16.41438796	     -4.98277598	     -7.27736129	    -36.77850999	    -20.75365508	    -12.96847797	      0.00000000	    -13.18053458	     -0.18809231	     -7.75120659
      6.57000000	      6.21953070	     -1.84719220	      1.71282071	      1.40879329	      1.05617629	     -0.13238935	      3.92298672	      6.63559743	     -7.47724207	     -9.62559268	      5.59887113	    -18.22237485	      0.00000000	    -14.54602344	     -5.38489789	     -6.14391385	    -39.88403516	    -23.08601236	    -14.96064099	      0.00000000	    -12.81947381	     -0.17199269	     -8.14631108
      6.58000000	      6.08354480	     -1.95930150	      2.16390950	      1.42128662	      1.05681820	     -0.13071791	      3.12282760	      6.93533555	     -7.76646523	     -9.18094554	      6.01801648	    -18.32493252	      0.00000000	    -12.63579578	     -5.68116573	     -4.87550781	    -42.94792240	    -25.09687743	    -17.17219702	      0.00000000	    -12.60246963	     -0.14781396	     -8.54148186
